# xmcd
#
# Track frame offsets: 
#        150
#        16704
#        42711
#        60058
#        80661
#        103371
#        131611
#        170201
#        210648
#        235751
#
# Disc length: 3561 seconds
#
# Revision: 0
# Processed by: cddbd v1.5.1PL2 Copyright (c) Steve Scherf et al.
# Submitted via: ExactAudioCopy v0.95a3
#
DISCID=850de70a
DTITLE=Eric Clapton - One More Car, One More Rider - Disc 1
DYEAR=2001
DGENRE=Blues
TTITLE0=Key To The Highway
TTITLE1=Reptile
TTITLE2=Got You On My Mind
TTITLE3=Tears In Heaven
TTITLE4=Bell Bottom Blues
TTITLE5=Change The World
TTITLE6=My Father's Eyes
TTITLE7=River Of Tears
TTITLE8=Goin' Down Slow
TTITLE9=She's Gone
EXTD=
EXTT0=
EXTT1=
EXTT2=
EXTT3=
EXTT4=
EXTT5=
EXTT6=
EXTT7=
EXTT8=
EXTT9=
PLAYORDER=
